<svg width="54" height="54" viewBox="0 0 54 54" fill="none" xmlns="http://www.w3.org/2000/svg">
<circle cx="27.2608" cy="27.2608" r="26.6304" fill="#446632"/>
<path fill-rule="evenodd" clip-rule="evenodd" d="M20 18C18.8954 18 18 18.8954 18 20V34C18 35.1046 18.8954 36 20 36H34C35.1046 36 36 35.1046 36 34V20C36 18.8954 35.1046 18 34 18H20ZM23 28C23 27.4477 22.5523 27 22 27C21.4477 27 21 27.4477 21 28V32C21 32.5523 21.4477 33 22 33C22.5523 33 23 32.5523 23 32V28ZM27 24C27.5523 24 28 24.4477 28 25V32C28 32.5523 27.5523 33 27 33C26.4477 33 26 32.5523 26 32V25C26 24.4477 26.4477 24 27 24ZM33 22C33 21.4477 32.5523 21 32 21C31.4477 21 31 21.4477 31 22V32C31 32.5523 31.4477 33 32 33C32.5523 33 33 32.5523 33 32V22Z" fill="white"/>
</svg>
